# xmcd
# 
# Track frame offsets:
#     150
#     19680
#     50402
# 
# Disc length: 882
# 
# Revision: 1
# Processed by: cddbd v1.5.2PL0 Copyright (c) Steve Scherf et al.
# Submitted via: BonkEnc v1.0
# 
DISCID=1b037003
DTITLE=ICE - SLOW LOVE
DYEAR=1994
DGENRE=Pop
TTITLE0=SLOW LOVE
TTITLE1=ISN'T IT A SHAME
TTITLE2=TEA 4 TEE(this guitar mix)
EXTD=YEAR: 1994
EXTT0=
EXTT1=
EXTT2=
PLAYORDER=
